<?xml version="1.0" encoding="UTF-8"?>
<svg version="1.1" xmlns="http://www.w3.org/2000/svg" width="512" height="512">
<path d="M0 0 C7.25239583 5.95539509 12.49674055 13.82793144 14.30859375 23.15234375 C14.40238518 25.51681517 14.43757426 27.88379231 14.43989563 30.25012207 C14.4430692 31.32294772 14.4430692 31.32294772 14.44630688 32.41744661 C14.45229863 34.81412043 14.45130733 37.21074148 14.45043945 39.60742188 C14.45347141 41.32563873 14.45699297 43.04385477 14.46096802 44.7620697 C14.4688532 48.46214385 14.47400044 52.16220837 14.47725868 55.86228943 C14.48316855 61.71099805 14.4997076 67.55964583 14.51860046 73.4083252 C14.52493762 75.41033169 14.53126325 77.41233822 14.53757763 79.41434479 C14.54074344 80.41685933 14.54390925 81.41937387 14.547171 82.45226765 C14.58926357 96.06891646 14.62223949 109.68553652 14.63452148 123.30224609 C14.64289156 132.48754089 14.66534064 141.6726847 14.70387715 150.85790396 C14.72366881 155.719463 14.736032 160.58079615 14.73104286 165.44239807 C14.72640953 170.01271513 14.7401294 174.58260337 14.76805496 179.15283394 C14.77498821 180.83142756 14.77507047 182.51006533 14.76785469 184.18865776 C14.75900684 186.47780793 14.77459152 188.76553144 14.79634094 191.05456543 C14.7987293 192.33619316 14.80111765 193.61782089 14.80357838 194.93828583 C15.06187486 198.22219545 15.06187486 198.22219545 17.14529705 200.5959549 C19.2872118 202.45651662 19.2872118 202.45651662 22.43359375 202.15234375 C25.32626744 201.45482938 25.32626744 201.45482938 26.4743042 199.53308105 C27.60804514 196.29782617 27.54505321 193.48888732 27.53222656 190.06054688 C27.53283836 189.0012925 27.53283836 189.0012925 27.53346252 187.92063904 C27.53365969 186.39121521 27.52963427 184.86178627 27.52185822 183.3323822 C27.51162424 180.91123445 27.51702076 178.49060077 27.52728271 176.06945801 C27.55524807 169.18732582 27.56769835 162.30548566 27.53857422 155.42333984 C27.52186313 151.21035033 27.53412783 146.99828266 27.56502533 142.78538513 C27.57113458 141.18102915 27.56624629 139.57659214 27.55014801 137.9723053 C27.52856852 135.72855052 27.54381676 133.48781126 27.56738281 131.24414062 C27.56579163 129.96825073 27.56420044 128.69236084 27.56256104 127.37780762 C28.30859375 124.15234375 28.30859375 124.15234375 31.17572021 121.78527832 C40.20929436 117.07674625 51.07187052 116.21371629 60.83984375 119.25 C72.07671616 124.57048883 77.54412076 131.8167352 82.30859375 143.15234375 C83.46078453 146.73812761 83.44613322 150.14128214 83.46630859 153.89282227 C83.47138931 154.56158386 83.47647003 155.23034546 83.48170471 155.91937256 C83.49237865 157.36693082 83.50101042 158.81450528 83.50782394 160.26208687 C83.51964168 162.5526548 83.53909914 164.84303663 83.5609436 167.13352966 C83.62248194 173.64421427 83.67668467 180.15487604 83.70996094 186.66577148 C83.73087879 190.65166461 83.76615042 194.63721186 83.81071854 198.62290764 C83.82489335 200.14152909 83.83360432 201.66021165 83.83677292 203.17889595 C83.84166945 205.30005394 83.86478993 207.42028872 83.89208984 209.54125977 C83.9001767 210.7483107 83.90826355 211.95536163 83.91659546 213.19898987 C84.07144205 216.12926566 84.07144205 216.12926566 85.64712524 218.0342865 C88.31347967 219.82856481 90.19762063 219.67083927 93.30859375 219.15234375 C96.49011502 215.17284744 96.69782229 211.879679 96.7409668 206.88354492 C96.75115845 206.17080414 96.7613501 205.45806335 96.77185059 204.72372437 C96.80191162 202.38083973 96.81123563 200.03836442 96.8203125 197.6953125 C96.83716436 196.06576689 96.85531529 194.43623424 96.87471008 192.80671692 C96.92216138 188.52751719 96.95200211 184.24837001 96.97814941 179.96899414 C97.0079796 175.5983645 97.05450147 171.22791582 97.09960938 166.85742188 C97.18558706 158.28915151 97.2529568 149.72086459 97.30859375 141.15234375 C98.8671113 140.33223063 100.43061091 139.52158162 101.99609375 138.71484375 C102.86621094 138.26238281 103.73632812 137.80992187 104.6328125 137.34375 C112.79708617 133.70856245 121.75518509 134.45879218 130.0546875 137.23828125 C139.82220258 141.19945721 146.3335481 149.49566675 150.4765625 158.87109375 C152.18267905 163.54889689 152.43920239 167.95764585 152.46630859 172.91455078 C152.47138931 173.57370483 152.47647003 174.23285889 152.48170471 174.9119873 C152.49236054 176.33551861 152.50099926 177.75906617 152.50782394 179.182621 C152.51966426 181.43546416 152.53912632 183.68812003 152.5609436 185.94088745 C152.6224135 192.34317835 152.67670493 198.74544436 152.70996094 205.14794922 C152.7308783 209.07015959 152.76614599 212.9920184 152.81071854 216.91402817 C152.82488984 218.40752918 152.83360354 219.90109226 152.83677292 221.39465714 C152.84166947 223.47978979 152.8647887 225.56398332 152.89208984 227.64892578 C152.9001767 228.83519562 152.90826355 230.02146545 152.91659546 231.24368286 C153.0858166 234.13005581 153.0858166 234.13005581 154.60806274 236.07052612 C156.48356942 237.4944189 156.48356942 237.4944189 159.93359375 236.96484375 C161.04734375 236.69671875 162.16109375 236.42859375 163.30859375 236.15234375 C164.77397548 233.22158029 164.48725951 230.25533018 164.51391602 227.04052734 C164.52381561 226.3087175 164.53371521 225.57690765 164.54391479 224.82292175 C164.57555574 222.39890807 164.60029741 219.97487477 164.625 217.55078125 C164.64556729 215.87211593 164.6665637 214.19345582 164.68797302 212.51480103 C164.74321693 208.09253144 164.79261596 203.67021494 164.84082031 199.24786377 C164.89101842 194.73681453 164.9467133 190.22583357 165.00195312 185.71484375 C165.10956305 176.86073539 165.21100172 168.00656779 165.30859375 159.15234375 C166.88933939 158.33482072 168.47330598 157.52352378 170.05859375 156.71484375 C170.9403125 156.26238281 171.82203125 155.80992187 172.73046875 155.34375 C180.31637652 151.83814111 190.16618971 151.92394382 198.12109375 154.21484375 C207.59884249 158.00241992 214.11341141 165.17306311 218.3046875 174.328125 C221.10516223 181.44320673 221.4609804 187.80613122 221.46972656 195.3449707 C221.47469147 196.370289 221.47965637 197.3956073 221.48477173 198.45199585 C221.49938334 201.84821245 221.50619933 205.2443821 221.51171875 208.640625 C221.51454613 209.80863333 221.5173735 210.97664165 221.52028656 212.18004417 C221.53528753 218.38036703 221.54450688 224.58066664 221.54882812 230.78100586 C221.55426529 237.12234851 221.57818873 243.46347125 221.60680008 249.80474567 C221.6256445 254.73055079 221.63064384 259.6563057 221.632164 264.58214378 C221.63515025 266.91520557 221.64303831 269.24826738 221.65634918 271.58129311 C221.91047704 319.61448395 209.78915043 361.7586124 176.30859375 397.15234375 C175.08076172 398.47685547 175.08076172 398.47685547 173.828125 399.828125 C153.23068012 421.33830746 125.90888579 434.87838334 97.30859375 442.15234375 C96.63054687 442.33168457 95.9525 442.51102539 95.25390625 442.69580078 C57.15607105 452.32544939 12.6367149 443.5083237 -20.79394531 423.92041016 C-29.29825531 418.6906072 -37.13760494 412.67608125 -44.69140625 406.15234375 C-45.49320312 405.47300781 -46.295 404.79367187 -47.12109375 404.09375 C-54.66295204 397.58032694 -60.86433194 390.13484876 -66.87890625 382.21484375 C-67.43642578 381.48322021 -67.99394531 380.75159668 -68.56835938 379.99780273 C-73.41773984 373.59292184 -78.05842968 367.05266595 -82.66015625 360.46875 C-85.78982715 355.99531741 -88.98599259 351.57168412 -92.19140625 347.15234375 C-96.90308769 340.65069901 -101.55751005 334.11194048 -106.17407227 327.54248047 C-109.77979747 322.42014104 -113.44563902 317.34410897 -117.12890625 312.27734375 C-122.21821191 305.26801998 -127.16063629 298.16943628 -132.00732422 290.99023438 C-134.46080096 287.36511568 -136.93544601 283.78228715 -139.58984375 280.30078125 C-146.26911797 271.51352187 -151.70710544 261.98649909 -151.07421875 250.53125 C-149.10789323 238.31194139 -144.3555437 229.55270777 -134.87890625 221.69140625 C-126.24797917 215.61893255 -115.73638402 214.08717115 -105.44140625 215.83984375 C-91.37175409 219.29004508 -82.28299131 230.41027574 -72.44140625 240.40234375 C-70.73031037 242.13913176 -69.01683262 243.8735769 -67.30078125 245.60546875 C-66.55795898 246.35989258 -65.81513672 247.11431641 -65.04980469 247.89160156 C-63.25351427 249.61351142 -61.45754549 251.21140935 -59.54400635 252.79364014 C-58.60264832 253.57201233 -57.66129028 254.35038452 -56.69140625 255.15234375 C-56.6880961 253.99258624 -56.68478596 252.83282873 -56.6813755 251.63792706 C-56.60227647 224.07813983 -56.51302583 196.5184006 -56.41135464 168.95868702 C-56.39883648 165.56303446 -56.3864036 162.16738158 -56.37402344 158.77172852 C-56.37032445 157.75775231 -56.37032445 157.75775231 -56.36655073 156.72329173 C-56.32687865 145.79260681 -56.29410681 134.86191162 -56.26390643 123.93119689 C-56.23273997 112.70670047 -56.19396258 101.4822476 -56.14861619 90.25779802 C-56.1233999 83.95681706 -56.1016042 77.65586662 -56.08806229 71.35484886 C-56.07519781 65.41973026 -56.05309611 59.48471656 -56.02402306 53.54965591 C-56.01498155 51.375723 -56.00926508 49.20177322 -56.00719261 47.02782249 C-55.97094438 14.76965189 -55.97094438 14.76965189 -45.50390625 3.33984375 C-33.09377969 -8.17218155 -13.91671537 -9.5538554 0 0 Z " fill="#EB9B00" transform="translate(220.69140625,66.84765625)"/>
<path d="M0 0 C2.01124504 -0.01190949 4.01943009 -0.06112889 6.0300293 -0.11157227 C7.94138672 -0.12220703 7.94138672 -0.12220703 9.89135742 -0.13305664 C11.05465576 -0.14651123 12.2179541 -0.15996582 13.41650391 -0.17382812 C17.54374412 0.60744836 19.04299129 2.14173383 21.58276367 5.42553711 C21.58276367 9.0531488 21.3747215 11.34559462 19.20776367 14.30053711 C14.32784782 17.67894039 7.8699649 16.60984893 2.20776367 16.61303711 C0.50233398 16.63140625 0.50233398 16.63140625 -1.23754883 16.65014648 C-2.33583008 16.65208008 -3.43411133 16.65401367 -4.56567383 16.65600586 C-6.06880127 16.66216919 -6.06880127 16.66216919 -7.60229492 16.66845703 C-11.80735488 16.30557458 -14.53772511 15.41853365 -17.35473633 12.23803711 C-18.8417363 8.30186071 -18.06587245 6.22456817 -16.41723633 2.42553711 C-11.70469231 -0.89536479 -5.51334625 0.01546992 0 0 Z " fill="#EB9A00" transform="translate(277.417236328125,87.574462890625)"/>
<path d="M0 0 C1.27746094 0.00064453 2.55492188 0.00128906 3.87109375 0.00195312 C4.86471924 0.01440063 4.86471924 0.01440063 5.87841797 0.02709961 C7.8998196 0.05070615 9.91990159 0.04765399 11.94140625 0.04101562 C23.03340297 0.10257565 23.03340297 0.10257565 26.40625 2.36328125 C27.99676299 5.54430723 27.80365378 8.90019115 27.40625 12.36328125 C25.99030034 14.55800323 25.11068247 15.14003939 22.65209961 15.91918945 C17.8419275 16.87034752 12.85425073 16.54801012 7.96875 16.55078125 C6.27008789 16.56915039 6.27008789 16.56915039 4.53710938 16.58789062 C2.89645508 16.59079102 2.89645508 16.59079102 1.22265625 16.59375 C0.22693604 16.59785889 -0.76878418 16.60196777 -1.79467773 16.60620117 C-4.77371565 16.34766277 -6.91728523 15.67725698 -9.59375 14.36328125 C-11.74579428 11.722136 -11.58984381 10.2519548 -11.46875 6.80078125 C-10.59375 3.36328125 -10.59375 3.36328125 -8.95117188 1.67114258 C-5.8307719 -0.06000724 -3.55964376 -0.00908072 0 0 Z " fill="#EB9A00" transform="translate(117.59375,87.63671875)"/>
<path d="M0 0 C3.46484375 0.66015625 3.46484375 0.66015625 5.40234375 1.72265625 C7.17665577 4.95816641 7.58718874 6.92863396 7.46484375 10.66015625 C5.62421075 13.78511153 3.03518935 16.12700215 0.46484375 18.66015625 C-0.57749285 19.77820655 -1.61630383 20.89954989 -2.65234375 22.0234375 C-3.77852391 23.21618989 -4.90613676 24.40759113 -6.03515625 25.59765625 C-6.56834473 26.17789551 -7.1015332 26.75813477 -7.65087891 27.35595703 C-10.55034634 30.32961126 -12.12607717 31.55370125 -16.2578125 32.62890625 C-19.53515625 32.66015625 -19.53515625 32.66015625 -22.47265625 31.22265625 C-24.73216731 28.41538493 -25.2986797 26.60976576 -25.19750977 23.01147461 C-23.68164647 17.63024373 -18.94018149 13.93355143 -15.03515625 10.16015625 C-14.14828125 9.24234375 -13.26140625 8.32453125 -12.34765625 7.37890625 C-4.95738403 0.07557841 -4.95738403 0.07557841 0 0 Z " fill="#EA9A00" transform="translate(265.53515625,25.33984375)"/>
<path d="M0 0 C3.98910791 2.59153182 7.12301241 6.101994 10.4375 9.5 C11.82098633 10.8303125 11.82098633 10.8303125 13.23242188 12.1875 C20.58984906 19.59394039 20.58984906 19.59394039 20.7265625 24.49609375 C20 28 20 28 17.9375 30.5625 C14.99467385 32.00260641 13.29593772 32.40155946 10.07543945 31.84936523 C5.20591003 29.85652994 1.70894262 25.47094348 -1.875 21.75 C-2.74125 20.89019531 -3.6075 20.03039062 -4.5 19.14453125 C-11.5790921 11.94338584 -11.5790921 11.94338584 -12 7 C-10.15088799 0.37401531 -6.56731808 -0.68929666 0 0 Z " fill="#EB9B00" transform="translate(144,26)"/>
<path d="M0 0 C0.7734375 0.0103125 1.546875 0.020625 2.34375 0.03125 C3.1171875 0.0209375 3.890625 0.010625 4.6875 0 C6.84375 0.53125 6.84375 0.53125 8.44921875 2.125 C11.16229054 6.80637878 10.36154315 12.56669094 10.34472656 17.85791016 C10.34375276 20.02510873 10.38541917 22.18877994 10.4296875 24.35546875 C10.43489407 25.73697181 10.4375827 27.11848713 10.4375 28.5 C10.44458984 29.75232422 10.45167969 31.00464844 10.45898438 32.29492188 C9.84375 35.53125 9.84375 35.53125 7.53320312 37.97460938 C4.84375 39.53125 4.84375 39.53125 1.21875 39.46875 C-3.2705773 38.22171464 -3.2705773 38.22171464 -5.15625 35.53125 C-5.54443359 32.40844727 -5.54443359 32.40844727 -5.5546875 28.59765625 C-5.55899277 27.58613747 -5.55899277 27.58613747 -5.56338501 26.55418396 C-5.56542423 25.12945719 -5.55990413 23.70470233 -5.54736328 22.2800293 C-5.53133045 20.10466496 -5.54720151 17.93116535 -5.56640625 15.75585938 C-5.5644233 14.36978758 -5.56057855 12.98371694 -5.5546875 11.59765625 C-5.55130371 10.33896729 -5.54791992 9.08027832 -5.54443359 7.78344727 C-5.06569959 3.77261977 -4.14205662 1.0205067 0 0 Z " fill="#EB9B00" transform="translate(200.15625,-0.53125)"/>
</svg>
